<?xml version="1.0" encoding="utf-8"?>
<!-- Generator: Adobe Illustrator 27.9.1, SVG Export Plug-In . SVG Version: 6.00 Build 0)  -->
<svg version="1.1" id="Layer_1" xmlns="http://www.w3.org/2000/svg" xmlns:xlink="http://www.w3.org/1999/xlink" x="0px" y="0px"
	 viewBox="0 0 2183 2500" style="enable-background:new 0 0 2183 2500;" xml:space="preserve">
<style type="text/css">
	.st0{fill:#330000;}
	.st1{fill:#FF9A00;}
</style>
<path class="st0" d="M560.9,368.2h1061.2c160.9,0,291,152.3,291,340.6V1903c0,188.3-130.1,340.6-291,340.6H560.9
	c-160.9,0-291-152.3-291-340.6V708.8C269.9,520.5,400,368.2,560.9,368.2z"/>
<g>
	<path class="st1" d="M1051.8,1474.4H777.5l-56,173.3c-1.5,6.6-7.4,11.1-14,10.3H568.8c-8.1,0-10.3-4.4-8.1-13.3l237.4-683.6
		c2.2-7.4,4.4-15.5,7.4-24.3c2.9-15.5,4.4-31.7,4.4-47.9c-0.7-3.7,2.2-7.4,5.9-8.1h191c5.9,0,8.8,2.2,9.6,5.9l269.1,759.5
		c2.2,8.1,0,11.8-7.4,11.8h-154.1c-5.2,0.7-10.3-2.9-11.8-8.1L1051.8,1474.4z M820.3,1324.7h187.3c-4.4-15.5-10.3-33.9-17-53.1
		c-6.6-19.9-13.3-41.3-19.9-63.4c-7.4-22.9-14-45-21.4-67.8s-14-44.2-19.9-65.6c-5.9-20.6-11.1-39.8-16.2-57.5h-1.5
		c-6.6,31.7-14.7,63.4-25.1,95.1c-11.1,35.4-22.1,72.3-33.9,109.1C842.4,1259.1,831.3,1293.7,820.3,1324.7L820.3,1324.7z
		 M1450,1009.8c-24.3,0.7-47.9-8.8-65.6-25.8c-17-18.4-25.8-42.8-25.1-67.8c-0.7-25.1,8.8-48.7,26.5-65.6
		c17.7-17,41.3-25.8,65.6-25.8c28.8,0,50.9,8.8,67.1,25.8c16.2,17.7,25.1,41.3,24.3,65.6c0.7,25.1-8.1,49.4-25.8,67.8
		C1500.1,1001.7,1475.1,1011.3,1450,1009.8L1450,1009.8z M1367.4,1649.9v-567.8c0-7.4,2.9-10.3,9.6-10.3h146c6.6,0,9.6,3.7,9.6,10.3
		v567.8c0,8.1-2.9,11.8-9.6,11.8h-144.5C1371.1,1661.7,1367.4,1657.3,1367.4,1649.9z"/>
</g>
</svg>
