<?xml version="1.0" encoding="utf-8"?>
<!-- Generator: Adobe Illustrator 28.1.0, SVG Export Plug-In . SVG Version: 6.00 Build 0)  -->
<svg version="1.1" id="Layer_1" xmlns="http://www.w3.org/2000/svg" xmlns:xlink="http://www.w3.org/1999/xlink" x="0px" y="0px"
	 viewBox="0 0 2183 2500" style="enable-background:new 0 0 2183 2500;" xml:space="preserve">
<style type="text/css">
	.st0{fill:#1B73BA;}
	.st1{fill:#1C88C7;}
	.st2{fill:#FFFFFF;}
</style>
<path class="st0" d="M407.5,2049.7L269.9,368.2l1643.1,3.4l-145.5,1678.1l-669.9,194L407.5,2049.7z"/>
<path class="st1" d="M1097.7,2081.2V528.3l676.6,2.3L1653.7,1920L1097.7,2081.2z"/>
<path class="st2" d="M1606.3,726.8H565.4l28.2,203h493.9l-486,208.6l28.2,196.2h716.1l-25.9,274l-242.5,47.4l-219.9-56.4L840.6,1444
	H638.7l27.1,323.7l433.1,120.7l415-131.9l53-632.7h-438.7l478.2-198.5L1606.3,726.8z"/>
<image style="overflow:visible;" width="1452" height="875" xlink:href="../../b&amp;G.png"  transform="matrix(1.3359 0 0 2.1434 122.0541 368.2)">
</image>
</svg>
