<?xml version="1.0" encoding="utf-8"?>
<!-- Generator: Adobe Illustrator 27.9.1, SVG Export Plug-In . SVG Version: 6.00 Build 0)  -->
<svg version="1.1" id="Capa_1" xmlns="http://www.w3.org/2000/svg" xmlns:xlink="http://www.w3.org/1999/xlink" x="0px" y="0px"
	 viewBox="0 0 2183 2491.6" style="enable-background:new 0 0 2183 2491.6;" xml:space="preserve">
<style type="text/css">
	.st0{fill:#FFFFFF;stroke:#231F20;stroke-miterlimit:10;}
</style>
<g>
	<g>
		<path class="st0" d="M1347.6,1327.6c-40.9,0-74.2,37-74.2,82.6c0,45.5,33.3,82.6,74.2,82.6c40.9,0,74.2-37,74.2-82.6
			C1421.8,1364.6,1388.5,1327.6,1347.6,1327.6z"/>
		<path class="st0" d="M1821.1,1881.9V1712c0-61.9-17.4-107.1-51.8-134.3c-35.3-27.9-78.9-28.7-110.8-23.9V592.3
			c0-123.6-90.4-224.1-201.4-224.1H722.2c-111,0-201.4,100.6-201.4,224.1v961.4c-30.9-4.6-72.8-3.7-107.1,23.2
			c-34.5,27-51.9,72.5-51.9,135.1v163c-52.8,15.7-91.9,69.2-91.9,132.8c0,19.6,14.2,35.4,31.8,35.4c17.6,0,31.8-15.8,31.8-35.4
			c0-36.9,26.9-66.9,60.1-66.9s60.1,30,60.1,66.9c0,19.6,14.2,35.4,31.8,35.4s31.8-15.8,31.8-35.4c0-63.6-39.1-117.2-91.9-132.8
			v-163c0-38.1,8.4-64.1,24.9-77.1c19.3-15.3,49-13.8,70.5-9.4v193.6c0,123.6,90.4,224.1,201.4,224.1h134.2v165.1
			c0,19.6,14.2,35.4,31.8,35.4c17.6,0,31.8-15.8,31.8-35.4v-165.1h300.4v165.1c0,19.6,14.2,35.4,31.8,35.4s31.8-15.8,31.8-35.4
			v-165.1h173.1c111.1,0,201.4-100.6,201.4-224.1v-193.5c22.5-4.5,53.9-6.1,74,9.9c16.5,13.2,24.9,38.9,24.9,76.5v169.9
			c-52.8,15.7-91.9,69.2-91.9,132.8c0,19.6,14.2,35.4,31.8,35.4c17.6,0,31.8-15.8,31.8-35.4c0-36.9,26.9-66.9,60.1-66.9
			c33.1,0,60.1,30,60.1,66.9c0,19.6,14.2,35.4,31.8,35.4c17.6,0,31.8-15.8,31.8-35.4C1913,1951.1,1873.9,1897.6,1821.1,1881.9z
			 M831.7,1823c-64.3,0-116.6-58.2-116.6-129.7c0-71.6,52.3-129.8,116.6-129.8s116.6,58.2,116.6,129.8
			C948.4,1764.8,896,1823,831.7,1823z M831.7,1539.9c-64.3,0-116.6-58.2-116.6-129.8c0-71.6,52.3-129.8,116.6-129.8
			s116.6,58.2,116.6,129.8S896,1539.9,831.7,1539.9z M831.7,1256.8c-64.3,0-116.6-58.2-116.6-129.8s52.3-129.8,116.6-129.8
			s116.6,58.2,116.6,129.8S896,1256.8,831.7,1256.8z M1089.7,1823c-64.3,0-116.6-58.2-116.6-129.7c0-71.6,52.3-129.8,116.6-129.8
			c64.3,0,116.6,58.2,116.6,129.8C1206.3,1764.8,1154,1823,1089.7,1823z M1089.7,1539.9c-64.3,0-116.6-58.2-116.6-129.8
			c0-71.6,52.3-129.8,116.6-129.8c64.3,0,116.6,58.2,116.6,129.8S1154,1539.9,1089.7,1539.9z M1089.7,1256.8
			c-64.3,0-116.6-58.2-116.6-129.8s52.3-129.8,116.6-129.8c64.3,0,116.6,58.2,116.6,129.8S1154,1256.8,1089.7,1256.8z M1347.6,1823
			c-64.3,0-116.6-58.2-116.6-129.7c0-71.6,52.3-129.8,116.6-129.8c64.3,0,116.6,58.2,116.6,129.8
			C1464.2,1764.8,1411.9,1823,1347.6,1823z M1347.6,1539.9c-64.3,0-116.6-58.2-116.6-129.8c0-71.6,52.3-129.8,116.6-129.8
			c64.3,0,116.6,58.2,116.6,129.8C1464.2,1481.7,1411.9,1539.9,1347.6,1539.9z M1347.6,1256.8c-64.3,0-116.6-58.2-116.6-129.8
			s52.3-129.8,116.6-129.8c64.3,0,116.6,58.2,116.6,129.8C1464.2,1198.6,1411.9,1256.8,1347.6,1256.8z M1474.8,849.5
			c0,19.6-14.2,35.4-31.8,35.4H736.3c-17.6,0-31.8-15.8-31.8-35.4V592.3c0-19.6,14.2-35.4,31.8-35.4h706.7
			c17.6,0,31.8,15.8,31.8,35.4L1474.8,849.5L1474.8,849.5L1474.8,849.5z"/>
		<path class="st0" d="M1347.6,1044.5c-40.9,0-74.2,37-74.2,82.6s33.3,82.6,74.2,82.6c40.9,0,74.2-37,74.2-82.6
			S1388.5,1044.5,1347.6,1044.5z"/>
		<path class="st0" d="M768.1,814.1h643.1V627.7H768.1V814.1z M1252.2,677.7c21.5,0,38.9,19.4,38.9,43.3c0,23.9-17.4,43.3-38.9,43.3
			c-21.5,0-38.9-19.4-38.9-43.3C1213.4,697,1230.8,677.7,1252.2,677.7z M927.1,677.7c21.5,0,38.9,19.4,38.9,43.3
			c0,23.9-17.4,43.3-38.9,43.3s-38.9-19.4-38.9-43.3C888.3,697,905.7,677.7,927.1,677.7z"/>
		<path class="st0" d="M831.7,1327.6c-40.9,0-74.2,37-74.2,82.6c0,45.5,33.3,82.6,74.2,82.6c40.9,0,74.2-37,74.2-82.6
			C905.9,1364.6,872.6,1327.6,831.7,1327.6z"/>
		<path class="st0" d="M1089.7,1327.6c-40.9,0-74.2,37-74.2,82.6c0,45.5,33.3,82.6,74.2,82.6c40.9,0,74.2-37,74.2-82.6
			C1163.9,1364.6,1130.6,1327.6,1089.7,1327.6z"/>
		<path class="st0" d="M831.7,1044.5c-40.9,0-74.2,37-74.2,82.6s33.3,82.6,74.2,82.6c40.9,0,74.2-37,74.2-82.6
			S872.6,1044.5,831.7,1044.5z"/>
		<path class="st0" d="M1089.7,1044.5c-40.9,0-74.2,37-74.2,82.6s33.3,82.6,74.2,82.6c40.9,0,74.2-37,74.2-82.6
			S1130.6,1044.5,1089.7,1044.5z"/>
		<path class="st0" d="M1089.7,1610.7c-40.9,0-74.2,37-74.2,82.6s33.3,82.6,74.2,82.6c40.9,0,74.2-37,74.2-82.6
			C1163.9,1647.7,1130.6,1610.7,1089.7,1610.7z"/>
		<path class="st0" d="M831.7,1610.7c-40.9,0-74.2,37-74.2,82.6s33.3,82.6,74.2,82.6c40.9,0,74.2-37,74.2-82.6
			C905.9,1647.7,872.6,1610.7,831.7,1610.7z"/>
		<path class="st0" d="M1347.6,1610.7c-40.9,0-74.2,37-74.2,82.6s33.3,82.6,74.2,82.6c40.9,0,74.2-37,74.2-82.6
			C1421.8,1647.7,1388.5,1610.7,1347.6,1610.7z"/>
	</g>
</g>
</svg>
