<?xml version="1.0" encoding="UTF-8"?>
<svg id="Layer_1" data-name="Layer 1" xmlns="http://www.w3.org/2000/svg" viewBox="0 0 2183 2500">
  <defs>
    <style>
      .cls-1 {
        fill: #fff;
        stroke: #231f20;
        stroke-miterlimit: 10;
      }
    </style>
  </defs>
  <path class="cls-1" d="M1339.89,1367.47c-39.73,0-72.07,37-72.07,82.6s32.34,82.6,72.07,82.6,72.07-37,72.07-82.6c0-45.6-32.34-82.6-72.07-82.6Z"/>
  <path class="cls-1" d="M1799.8,1921.77v-169.9c0-61.9-16.9-107.1-50.31-134.3-34.29-27.9-76.64-28.7-107.62-23.9v-961.5c0-123.6-87.81-224.1-195.62-224.1h-713.81c-107.81,0-195.62,100.6-195.62,224.1v961.4c-30.01-4.6-70.71-3.7-104.03,23.2-33.51,27-50.41,72.5-50.41,135.1v163c-51.28,15.7-89.26,69.2-89.26,132.8,0,19.6,13.79,35.4,30.89,35.4s30.89-15.8,30.89-35.4c0-36.9,26.13-66.9,58.38-66.9s58.38,30,58.38,66.9c0,19.6,13.79,35.4,30.89,35.4s30.89-15.8,30.89-35.4c0-63.6-37.98-117.2-89.26-132.8v-163c0-38.1,8.16-64.1,24.19-77.1,18.75-15.3,47.59-13.8,68.48-9.4v193.6c0,123.6,87.81,224.1,195.62,224.1h130.35v165.1c0,19.6,13.79,35.4,30.89,35.4s30.89-15.8,30.89-35.4v-165.1h291.78v165.1c0,19.6,13.79,35.4,30.89,35.4s30.89-15.8,30.89-35.4v-165.1h168.13c107.91,0,195.62-100.6,195.62-224.1v-193.5c21.85-4.5,52.35-6.1,71.88,9.9,16.03,13.2,24.19,38.9,24.19,76.5v169.9c-51.28,15.7-89.26,69.2-89.26,132.8,0,19.6,13.79,35.4,30.89,35.4s30.89-15.8,30.89-35.4c0-36.9,26.13-66.9,58.38-66.9s58.38,30,58.38,66.9c0,19.6,13.79,35.4,30.89,35.4s30.89-15.8,30.89-35.4c.1-63.6-37.88-117.1-89.17-132.8ZM838.79,1862.87c-62.45,0-113.25-58.2-113.25-129.7s50.8-129.8,113.25-129.8,113.25,58.2,113.25,129.8c.1,71.5-50.8,129.7-113.25,129.7ZM838.79,1579.77c-62.45,0-113.25-58.2-113.25-129.8s50.8-129.8,113.25-129.8,113.25,58.2,113.25,129.8-50.8,129.8-113.25,129.8ZM838.79,1296.67c-62.45,0-113.25-58.2-113.25-129.8s50.8-129.8,113.25-129.8,113.25,58.2,113.25,129.8-50.8,129.8-113.25,129.8ZM1089.39,1862.87c-62.46,0-113.25-58.2-113.25-129.7s50.8-129.8,113.25-129.8,113.25,58.2,113.25,129.8c0,71.5-50.8,129.7-113.25,129.7ZM1089.39,1579.77c-62.46,0-113.25-58.2-113.25-129.8s50.8-129.8,113.25-129.8,113.25,58.2,113.25,129.8-50.8,129.8-113.25,129.8ZM1089.39,1296.67c-62.46,0-113.25-58.2-113.25-129.8s50.8-129.8,113.25-129.8,113.25,58.2,113.25,129.8-50.8,129.8-113.25,129.8ZM1339.89,1862.87c-62.46,0-113.25-58.2-113.25-129.7s50.8-129.8,113.25-129.8,113.25,58.2,113.25,129.8-50.8,129.7-113.25,129.7ZM1339.89,1579.77c-62.46,0-113.25-58.2-113.25-129.8s50.8-129.8,113.25-129.8,113.25,58.2,113.25,129.8-50.8,129.8-113.25,129.8ZM1339.89,1296.67c-62.46,0-113.25-58.2-113.25-129.8s50.8-129.8,113.25-129.8,113.25,58.2,113.25,129.8-50.8,129.8-113.25,129.8ZM1463.44,889.37c0,19.6-13.79,35.4-30.89,35.4h-686.42c-17.09,0-30.89-15.8-30.89-35.4v-257.2c0-19.6,13.79-35.4,30.89-35.4h686.42c17.09,0,30.89,15.8,30.89,35.4v257.2h0Z"/>
  <path class="cls-1" d="M1339.89,1084.37c-39.73,0-72.07,37-72.07,82.6s32.34,82.6,72.07,82.6,72.07-37,72.07-82.6-32.34-82.6-72.07-82.6Z"/>
  <path class="cls-1" d="M777.02,853.97h624.65v-186.4h-624.65v186.4ZM1247.23,717.57c20.88,0,37.78,19.4,37.78,43.3s-16.9,43.3-37.78,43.3-37.78-19.4-37.78-43.3c.1-24,17-43.3,37.78-43.3ZM931.46,717.57c20.88,0,37.78,19.4,37.78,43.3s-16.9,43.3-37.78,43.3-37.78-19.4-37.78-43.3c.1-24,17-43.3,37.78-43.3Z"/>
  <path class="cls-1" d="M838.79,1367.47c-39.73,0-72.07,37-72.07,82.6s32.34,82.6,72.07,82.6,72.07-37,72.07-82.6-32.34-82.6-72.07-82.6Z"/>
  <path class="cls-1" d="M1089.39,1367.47c-39.73,0-72.07,37-72.07,82.6s32.34,82.6,72.07,82.6,72.07-37,72.07-82.6c0-45.6-32.34-82.6-72.07-82.6Z"/>
  <path class="cls-1" d="M838.79,1084.37c-39.73,0-72.07,37-72.07,82.6s32.34,82.6,72.07,82.6,72.07-37,72.07-82.6-32.34-82.6-72.07-82.6Z"/>
  <path class="cls-1" d="M1089.39,1084.37c-39.73,0-72.07,37-72.07,82.6s32.34,82.6,72.07,82.6,72.07-37,72.07-82.6-32.34-82.6-72.07-82.6Z"/>
  <path class="cls-1" d="M1089.39,1650.57c-39.73,0-72.07,37-72.07,82.6s32.34,82.6,72.07,82.6,72.07-37,72.07-82.6c0-45.6-32.34-82.6-72.07-82.6Z"/>
  <path class="cls-1" d="M838.79,1650.57c-39.73,0-72.07,37-72.07,82.6s32.34,82.6,72.07,82.6,72.07-37,72.07-82.6-32.34-82.6-72.07-82.6Z"/>
  <path class="cls-1" d="M1339.89,1650.57c-39.73,0-72.07,37-72.07,82.6s32.34,82.6,72.07,82.6,72.07-37,72.07-82.6c0-45.6-32.34-82.6-72.07-82.6Z"/>
</svg>