<?xml version="1.0" encoding="utf-8"?>
<!-- Generator: Adobe Illustrator 27.9.1, SVG Export Plug-In . SVG Version: 6.00 Build 0)  -->
<svg version="1.1" id="Layer_1" xmlns="http://www.w3.org/2000/svg" xmlns:xlink="http://www.w3.org/1999/xlink" x="0px" y="0px"
	 viewBox="0 0 2183 2500" style="enable-background:new 0 0 2183 2500;" xml:space="preserve">
<style type="text/css">
	.st0{fill:#DE4C36;}
</style>
<path class="st0" d="M1882.1,1222.4l-717.4-818.8c-41.3-47.2-108.3-47.2-149.6,0l-149,170l189,215.7c43.9-16.9,94.3-5.6,129.3,34.4
	c35.2,40.2,45.1,98.2,29.9,148.5l182.1,207.9c44.1-17.3,94.9-6.1,130.1,34.1c49.2,56.1,49.2,147.1,0,203.2
	c-49.2,56.2-128.9,56.2-178.1,0c-37-42.3-46.1-104.3-27.4-156.3L1151,1067.2l0,510.2c12.3,6.9,23.6,16.1,33.3,27.2
	c49.2,56.1,49.2,147.1,0,203.3c-49.2,56.1-128.9,56.1-178,0c-49.2-56.2-49.2-147.2,0-203.3c11.8-13.5,25.8-24.1,41.2-31.4v-514.9
	c-15.4-7.2-29.5-17.9-41.2-31.4C969,984.4,960,922,979.1,869.8L792.9,657.2l-491.9,561.4c-41.3,47.2-41.3,123.7,0,170.9l717.4,818.8
	c41.3,47.2,108.3,47.2,149.7,0l714.1-815C1923.4,1346.1,1923.4,1269.5,1882.1,1222.4"/>
</svg>
