<?xml version="1.0" encoding="utf-8"?>
<!-- Generator: Adobe Illustrator 27.9.1, SVG Export Plug-In . SVG Version: 6.00 Build 0)  -->
<svg version="1.1" id="Layer_1" xmlns="http://www.w3.org/2000/svg" xmlns:xlink="http://www.w3.org/1999/xlink" x="0px" y="0px"
	 viewBox="0 0 2183 2500" style="enable-background:new 0 0 2183 2500;" xml:space="preserve">
<style type="text/css">
	.st0{fill:#FFFFFF;}
</style>
<path class="st0" d="M1148.6,1738.6c-19.3,0-35,14.4-35,40.4c0,26.1,15.8,41.3,35,41.3s35-15.3,35-41.3
	C1183.6,1753,1168.7,1738.6,1148.6,1738.6z M1148.6,1738.6c-19.3,0-35,14.4-35,40.4c0,26.1,15.8,41.3,35,41.3s35-15.3,35-41.3
	C1183.6,1753,1168.7,1738.6,1148.6,1738.6z M1719.2,675.5C1548.5,464.4,1080.3,459,1080.3,459s-468.2,5.4-638.8,216.6
	c-70,974.1,70,1245.5,638.8,1471.9C1649.2,1921,1789.2,1648.7,1719.2,675.5z M956.1,1817.7c20.1,0,38.5-9.9,50.8-26.1l38.5,35.9
	c-21,27-53.4,41.3-92.8,41.3c-68.3,0-118.1-47.6-118.1-115c0-67.4,49.9-115,118.1-115s71.8,15.3,92.8,41.3l-38.5,35.9
	c-12.3-16.2-30.6-26.1-50.8-26.1c-35,0-60.4,25.2-60.4,62.9s24.5,63.8,60.4,63.8l0,0V1817.7z M1148.6,1868
	c-54.3,0-94.5-36.8-94.5-89c0-52.1,39.4-88.1,94.5-88.1c55.1,0,94.5,36.8,94.5,88.1S1204.6,1868,1148.6,1868L1148.6,1868z
	 M1293.9,1868c-18.4,0-34.1-14.4-35-34.1v-1.8c0-19.8,15.8-35.9,35-35.9s35,16.2,35,35.9s-14,35-32.4,35.9H1293.9z M1286.9,1494.2
	l-54.3-144.7h-308l-54.3,144.7H592.9L946.5,663h268.7l353.5,831.2C1568.6,1494.2,1286.9,1494.2,1286.9,1494.2z M1148.6,1738.6
	c-19.3,0-35,14.4-35,40.4c0,26.1,15.8,41.3,35,41.3s35-15.3,35-41.3C1183.6,1753,1168.7,1738.6,1148.6,1738.6z M999.8,1147.3h157.5
	l-78.8-209.4L999.8,1147.3z M1148.6,1738.6c-19.3,0-35,14.4-35,40.4c0,26.1,15.8,41.3,35,41.3s35-15.3,35-41.3
	C1183.6,1753,1168.7,1738.6,1148.6,1738.6z M1148.6,1738.6c-19.3,0-35,14.4-35,40.4c0,26.1,15.8,41.3,35,41.3s35-15.3,35-41.3
	C1183.6,1753,1168.7,1738.6,1148.6,1738.6z"/>
<path class="st0" d="M1806.7,668.3l-1.8-28.8l-17.5-22.5c-84-104.2-230.1-177-434-218.4c-89.3-18-180.3-27.9-271.3-30.6h-1.8
	c-91,2.7-182,12.6-271.3,30.6C604.3,441,458.2,513.8,374.2,618l-17.5,22.5l-1.8,28.8c-38.5,528.4-13.1,834.8,86.6,1059.5
	c100.6,224.7,276.5,370.2,607.3,502.3l31.5,12.6l31.5-12.6c330.8-131.2,506.7-276.8,607.3-502.3
	C1819.8,1503.2,1845.2,1197.6,1806.7,668.3C1806.7,668.3,1806.7,668.3,1806.7,668.3z M1678.9,1709.9
	c-95.4,213.9-264.3,352.3-582.8,479l-15.8,6.3l-15.8-6.3c-318.5-126.7-487.4-266-582.8-479c-97.1-216.6-121.6-517.6-84-1037.9v-14.4
	l9.6-10.8c182-224.7,652.8-232.7,672.1-232.7h1.8c20.1,0,490.9,8.1,672.1,232.7l8.8,10.8v14.4c38.5,520.3,14,821.3-83.1,1038.8l0,0
	L1678.9,1709.9z"/>
</svg>
