<?xml version="1.0" encoding="UTF-8"?><svg id="Layer_1" xmlns="http://www.w3.org/2000/svg" viewBox="0 0 169.8 208.7"><path d="m92.7,152.5c-2.2,0-4,1.6-4,4.5s1.8,4.6,4,4.6,4-1.7,4-4.6-1.7-4.5-4-4.5Zm0,0c-2.2,0-4,1.6-4,4.5s1.8,4.6,4,4.6,4-1.7,4-4.6-1.7-4.5-4-4.5Zm65.2-118.3c-19.5-23.5-73-24.1-73-24.1,0,0-53.5.6-73,24.1-8,108.4,8,138.6,73,163.8,65-25.2,81-55.5,73-163.8Zm-87.2,127.1c2.3,0,4.4-1.1,5.8-2.9l4.4,4c-2.4,3-6.1,4.6-10.6,4.6-7.8,0-13.5-5.3-13.5-12.8s5.7-12.8,13.5-12.8,8.2,1.7,10.6,4.6l-4.4,4c-1.4-1.8-3.5-2.9-5.8-2.9-4,0-6.9,2.8-6.9,7s2.8,7.1,6.9,7.1h0Zm22,5.6c-6.2,0-10.8-4.1-10.8-9.9s4.5-9.8,10.8-9.8,10.8,4.1,10.8,9.8-4.4,9.9-10.8,9.9h0Zm16.6,0c-2.1,0-3.9-1.6-4-3.8v-.2c0-2.2,1.8-4,4-4s4,1.8,4,4-1.6,3.9-3.7,4h-.3Zm-.8-41.6l-6.2-16.1h-35.2l-6.2,16.1h-31.7l40.4-92.5h30.7l40.4,92.5s-32.2,0-32.2,0Zm-15.8,27.2c-2.2,0-4,1.6-4,4.5s1.8,4.6,4,4.6,4-1.7,4-4.6-1.7-4.5-4-4.5Zm-17-65.8h18l-9-23.3-9,23.3Zm17,65.8c-2.2,0-4,1.6-4,4.5s1.8,4.6,4,4.6,4-1.7,4-4.6-1.7-4.5-4-4.5Zm0,0c-2.2,0-4,1.6-4,4.5s1.8,4.6,4,4.6,4-1.7,4-4.6-1.7-4.5-4-4.5Z" stroke-width="0"/><path d="m167.9,33.4l-.2-3.2-2-2.5c-9.6-11.6-26.3-19.7-49.6-24.3-10.2-2-20.6-3.1-31-3.4h-.2c-10.4.3-20.8,1.4-31,3.4C30.5,8.1,13.8,16.2,4.2,27.8l-2,2.5-.2,3.2C-2.4,92.3.5,126.4,11.9,151.4c11.5,25,31.6,41.2,69.4,55.9l3.6,1.4,3.6-1.4c37.8-14.6,57.9-30.8,69.4-55.9s14.4-59.1,10-118h0Zm-14.6,115.9c-10.9,23.8-30.2,39.2-66.6,53.3l-1.8.7-1.8-.7c-36.4-14.1-55.7-29.6-66.6-53.3C5.4,125.2,2.6,91.7,6.9,33.8v-1.6l1.1-1.2C28.8,6,82.6,5.1,84.8,5.1h.2c2.3,0,56.1.9,76.8,25.9l1,1.2v1.6c4.4,57.9,1.6,91.4-9.5,115.6h0Z" stroke-width="0"/></svg>