<?xml version="1.0" encoding="utf-8"?>
<!-- Generator: Adobe Illustrator 27.9.1, SVG Export Plug-In . SVG Version: 6.00 Build 0)  -->
<svg version="1.1" id="Layer_1" xmlns="http://www.w3.org/2000/svg" xmlns:xlink="http://www.w3.org/1999/xlink" x="0px" y="0px"
	 viewBox="0 0 2183 2500" style="enable-background:new 0 0 2183 2500;" xml:space="preserve">
<style type="text/css">
	.st0{fill:#FFFFFF;stroke:#6C6C6C;stroke-miterlimit:10;}
</style>
<path class="st0" d="M406.8,1696.7h68.5v390.7h342.3v78.1H406.8V1696.7z M1844.5,1696.7h-68.5v390.7h-342.3v78.1h410.8V1696.7z
	 M475.3,602.6h342.3v-78.1H406.8v468.9h68.5V602.6z M1844.5,524.5h-410.8v78.1h342.3v390.7h68.5V524.5z M1177,1462.2h-102.7
	c-28.4,0-51.3-26.2-51.3-58.6v-117.2c0-32.4,23-58.6,51.3-58.6H1177c28.4,0,51.3,26.2,51.3,58.6v117.2
	C1228.4,1436,1205.4,1462.2,1177,1462.2z M1159.9,1305.9h-68.5v78.1h68.5V1305.9z M1639.2,1305.9h-342.3v78.1h342.3V1305.9z
	 M954.5,1305.9H612.2v78.1h342.3V1305.9z M1159.9,1931.1v-390.7h-68.5v390.7H1159.9z M1091.4,1149.7h68.5V758.9h-68.5V1149.7z"/>
</svg>
