<?xml version="1.0" encoding="utf-8"?>
<!-- Generator: Adobe Illustrator 28.3.0, SVG Export Plug-In . SVG Version: 6.00 Build 0)  -->
<svg version="1.1" id="Layer_1" xmlns="http://www.w3.org/2000/svg" xmlns:xlink="http://www.w3.org/1999/xlink" x="0px" y="0px"
	 viewBox="0 0 2183 2500" style="enable-background:new 0 0 2183 2500;" xml:space="preserve">
<style type="text/css">
	.st0{fill:#FFFFFF;}
</style>
<path class="st0" d="M891,1214.2H234.7c0,0-34.6,408.9,342.8,747.2c343.8,308,756.5,281.8,756.5,281.8v-607
	C1117.1,1636.2,891,1464.7,891,1214.2z"/>
<path class="st0" d="M1269.4,853.4V368.5c0,0-363.6-18.8-644,262.2C405.6,847.9,386,1121.8,386,1121.8s407.1,72.4,504.8,92.4
	C888.1,1009.7,1056.6,853.4,1269.4,853.4z"/>
<path class="st0" d="M386.3,1121.8c0,0-8.7,49.9-3.6,92.4H891L386.3,1121.8z"/>
<path class="st0" d="M1269.4,853.4l97.9-335.1c0,0-63.3-7.8-97.9-4.1V853.4z"/>
<path class="st0" d="M1269.4,853.4c0,0,314-6.2,328.5,314.9h343.3c0,0,30.9-524.2-573.9-649.9
	C1343.1,601.7,1269.4,853.4,1269.4,853.4z"/>
<path class="st0" d="M1334.2,1636.2l118.2-249.8c0,0,139.5-63,145.8-218.3c45.2,18.8,154,61.6,203.8,82.5
	C1791.1,1330.5,1678.7,1627,1334.2,1636.2z"/>
<path class="st0" d="M1452.4,1386.4c0,0-49.6,32.2-118.2,26.7v223.2L1452.4,1386.4z M1597.9,1168h215.9c0,0,5.1,29.9-12.1,82.5
	C1756.5,1231.9,1597.9,1168,1597.9,1168z"/>
</svg>
