<?xml version="1.0" encoding="utf-8"?>
<!-- Generator: Adobe Illustrator 27.9.1, SVG Export Plug-In . SVG Version: 6.00 Build 0)  -->
<svg version="1.1" id="Layer_1" xmlns="http://www.w3.org/2000/svg" xmlns:xlink="http://www.w3.org/1999/xlink" x="0px" y="0px"
	 viewBox="0 0 2183 2500" style="enable-background:new 0 0 2183 2500;" xml:space="preserve">
<style type="text/css">
	.st0{fill:#61DAFB;}
</style>
<g>
	<path class="st0" d="M2095.8,1306.8c0-139.5-166.4-271.7-421.5-353.7c58.9-273,32.7-490.2-82.6-559.8c-26.6-16.3-57.6-24-91.6-24
		V465c18.8,0,33.9,3.9,46.6,11.2c55.6,33.5,79.7,161,60.9,324.9c-4.5,40.4-11.9,82.8-20.9,126.2c-80.1-20.6-167.6-36.5-259.6-46.8
		c-55.2-79.4-112.4-151.5-170.1-214.6c133.3-130.1,258.4-201.3,343.4-201.3v-95.7c-112.4,0-259.6,84.1-408.4,230.1
		C943.2,453.8,796,370.6,683.6,370.6v95.7c84.6,0,210.2,70.8,343.4,200c-57.2,63.1-114.5,134.8-168.9,214.2
		c-92.4,10.3-179.9,26.2-260,47.2c-9.4-42.9-16.4-84.6-21.3-124.5c-19.2-164,4.5-291.5,59.7-325.4c12.3-7.7,28.2-11.2,47-11.2V371
		c-34.3,0-65.4,7.7-92.4,24c-114.9,69.5-140.6,286.3-81.4,558.5c-254.3,82.4-419.9,214.2-419.9,353.3
		c0,139.5,166.4,271.7,421.5,353.7c-58.9,273-32.7,490.2,82.6,559.8c26.6,16.3,57.6,24,92,24c112.4,0,259.6-84.1,408.4-230.1
		c148.8,145.1,296,228.4,408.4,228.4c34.3,0,65.4-7.7,92.4-24c114.9-69.5,140.6-286.3,81.4-558.5
		C1930.2,1578.1,2095.8,1445.9,2095.8,1306.8L2095.8,1306.8z M1563.5,1020.5c-15.1,55.4-33.9,112.5-55.2,169.6
		c-16.8-34.3-34.3-68.7-53.6-103c-18.8-34.3-38.8-67.8-58.9-100.4C1453.9,995.6,1509.9,1006.7,1563.5,1020.5L1563.5,1020.5z
		 M1376.2,1477.6c-31.9,57.9-64.6,112.9-98.5,164c-60.9,5.6-122.7,8.6-184.8,8.6c-61.7,0-123.5-3-184-8.2
		c-33.9-51.1-67.1-105.6-98.9-163.1c-31.1-56.2-59.3-113.3-85-170.8c25.3-57.5,54-115,84.6-171.3c31.9-57.9,64.6-112.9,98.5-164
		c60.9-5.6,122.7-8.6,184.8-8.6c61.7,0,123.5,3,184,8.2c33.9,51.1,67.1,105.6,98.9,163.1c31.1,56.2,59.3,113.3,85,170.8
		C1435.1,1363.9,1406.9,1421.4,1376.2,1477.6L1376.2,1477.6z M1508.3,1421.8c22.1,57.5,40.9,115,56.4,170.8
		c-53.6,13.7-110,25.3-168.4,34.3c20-33.1,40.1-67,58.9-101.7C1473.9,1490.9,1491.5,1456.2,1508.3,1421.8L1508.3,1421.8z
		 M1093.7,1879.8c-38-41.2-76-87.1-113.7-137.4c36.8,1.7,74.4,3,112.4,3c38.4,0,76.5-0.9,113.7-3
		C1169.3,1792.7,1131.3,1838.6,1093.7,1879.8z M789.5,1627c-58.1-9-114.1-20.2-167.6-33.9c15.1-55.4,33.9-112.5,55.2-169.6
		c16.8,34.3,34.3,68.7,53.6,103S769.5,1594.4,789.5,1627z M1091.6,733.7c38,41.2,76,87.1,113.7,137.4c-36.8-1.7-74.4-3-112.4-3
		c-38.4,0-76.5,0.9-113.7,3C1016,820.9,1054,774.9,1091.6,733.7z M789.1,986.6c-20,33.1-40.1,67-58.9,101.7
		c-18.8,34.3-36.4,68.7-53.2,103c-22.1-57.5-40.9-115-56.4-170.8C674.2,1007.2,730.6,995.6,789.1,986.6L789.1,986.6z M419.1,1524
		c-144.7-64.8-238.4-149.8-238.4-217.2s93.6-152.8,238.4-217.2c35.2-15.9,73.6-30,113.3-43.4c23.3,84.1,54,171.7,92,261.4
		c-37.6,89.3-67.9,176.4-90.8,260.1C493.1,1554.5,454.6,1539.9,419.1,1524L419.1,1524z M639,2137.4c-55.6-33.5-79.7-161-60.9-324.9
		c4.5-40.4,11.9-82.8,20.9-126.2c80.1,20.6,167.6,36.5,259.6,46.8c55.2,79.4,112.4,151.5,170.1,214.6
		C895.4,2077.7,770.3,2149,685.2,2149C666.8,2148.6,651.3,2144.7,639,2137.4L639,2137.4z M1608.8,1810.3
		c19.2,164-4.5,291.5-59.7,325.4c-12.3,7.7-28.2,11.2-47,11.2c-84.6,0-210.2-70.8-343.4-200c57.2-63.1,114.5-134.8,168.9-214.2
		c92.4-10.3,179.9-26.2,260-47.2C1597,1728.7,1604.3,1770.4,1608.8,1810.3z M1766.2,1524c-35.2,15.9-73.6,30-113.3,43.4
		c-23.3-84.1-54-171.7-92-261.4c37.6-89.3,67.9-176.4,90.8-260.1c40.5,13.3,78.9,27.9,114.9,43.8
		c144.7,64.8,238.4,149.8,238.4,217.2C2004.6,1374.2,1911,1459.6,1766.2,1524L1766.2,1524z"/>
	<ellipse class="st0" cx="1092.5" cy="1306.8" rx="186.8" ry="196.2"/>
</g>
</svg>
