<?xml version="1.0" encoding="utf-8"?>
<!-- Generator: Adobe Illustrator 27.9.1, SVG Export Plug-In . SVG Version: 6.00 Build 0)  -->
<svg version="1.1" id="Layer_1" xmlns="http://www.w3.org/2000/svg" xmlns:xlink="http://www.w3.org/1999/xlink" x="0px" y="0px"
	 viewBox="0 0 2183 2500" style="enable-background:new 0 0 2183 2500;" xml:space="preserve">
<style type="text/css">
	.st0{fill:#CF649A;}
</style>
<path class="st0" d="M1684.4,1445.1c-57.4,0.5-107.2,21.5-148.9,52.8c-15.4-46.4-30.8-87-33.4-117.3c-2.9-35.2-6.4-56.7-2.9-98.7
	c3.5-42,19.6-101.7,19.6-106.5c-0.3-4.4-3.5-25.9-36.6-26.4c-33.1-0.5-61.6,9.8-64.8,23s-9.6,43.5-13.8,74.8
	c-5.8,45.9-66.1,208.7-100.5,294.2c-11.2-33.2-20.9-62.6-22.8-86c-2.9-35.2-6.4-56.7-2.9-98.7c3.5-42,19.6-101.7,19.6-106.5
	c-0.3-4.4-3.5-25.9-36.6-26.4c-33.1-0.5-61.6,9.8-64.8,23c-3.2,13.2-6.7,44.5-13.8,74.8c-6.7,30.3-87,302-107.8,372.9
	c-10.6,36.2-19.9,65-26.6,84.5c-6.7,19.5-0.3,1.5-1,3.4c-5.8,16.6-9,25.9-9,25.9v0.5c-4.5,12.2-9.3,23.9-11.6,23.9
	c-1.6,0-4.8-32.7,0.6-77.7c11.9-94.3,40.8-241.4,40.4-246.8c0-2.4,5.5-28.4-18.6-41.5c-23.4-13.2-31.8,8.8-33.7,8.8
	c-1.9,0-3.5,7.8-3.5,7.8s26-165.7-49.7-165.7c-47.5,0-113,78.7-145.4,150.5c-20.5,17.1-64.2,53.3-110.4,91.9
	c-17.7,14.7-35.9,30.3-53.3,44.5l-3.5-5.9c-91.8-149.1-261.6-254.6-254.5-455c2.6-72.8,19.3-264.9,326.1-497.5
	c251.3-190.6,452.5-138.3,487.5-22c49.7,166.2-107.5,475-368.8,519.5c-99.5,17.1-151.8-41.5-165-63.5c-13.8-23-15.7-23.9-20.9-19.5
	c-8.3,6.8-3.2,27.4,0,39.6c7.7,30.8,39.8,85.5,94.4,112.9c47.8,23.9,164.6,37.1,305.9-45.9c158.2-93.3,281.8-352.4,245.5-568.9
	C1262,377.3,1022,305,795.1,427.6c-135.1,73.3-281.5,187.7-386.7,337.7c-125.2,177.9-145.1,333.3-136.7,397.8
	c29.2,230.2,237.5,380.2,320.9,491.2c-4.2,3.4-8,6.8-11.6,9.8c-41.7,31.3-200.6,157.9-240.4,291.8c-44.9,151.5,7.1,260.5,41.7,275.1
	c107.2,45.5,217-36.2,276.3-170.6c59.1-134.4,52-308.9,24.7-388.5l-1-2.9l32.7-29.3c21.2-19.1,42-36.7,60.3-51.8
	c-10.3,42.5-17.7,92.9-21.5,166.2c-4.5,86,18.6,197.4,49.1,241.4c13.5,19.1,29.5,19.5,39.5,19.5c35.3,0,51.4-44.5,69-97.7
	c21.8-65,41.1-140.3,41.1-140.3s-24.1,203.8,41.7,203.8c24.1,0,48.1-47.4,59.1-71.8v0.5c0,0,0.6-1.5,1.9-4.9c1.3-3,2.6-6.1,3.9-9.3
	v-1c9.6-25.4,31.1-83.6,63.2-179.8c41.4-124.1,81.2-279.5,81.2-279.5s3.9,38.1,15.7,100.7c7.1,37.1,22.5,77.7,34.3,117.3
	c-9.6,20.5-15.4,32.3-15.4,32.3l0.3,0.5c-7.7,15.6-16.4,32.3-25.4,48.9c-32.7,59.6-71.9,127.6-77,147.1c-6.1,23-4.8,40.1,7.1,53.8
	c8.7,9.8,24.1,11.7,40.4,9.8c29.5-2.9,50.1-14.2,60.3-21c16-8.8,34.3-22,52-41.5c32.1-36.2,51.7-87.5,49.7-155.9
	c-1-37.6-9-74.8-18.9-110c2.9-6.4,5.8-12.7,8.7-19.5c50.7-112.9,89.9-237,89.9-237s3.9,38.1,15.7,100.7
	c6.1,31.8,18.3,66.5,29.2,100.7c-47.5,59.1-77.3,127.6-87.6,172.5c-18.9,83.1-4.2,120.7,23.8,129.5c12.5,3.9,30.5-4.9,44-13.7
	c16.7-8.3,36.9-22.5,55.5-43.5c32.1-36.2,62.9-86.5,61.3-154.4c-1-31.3-6.4-62.1-13.8-91.4c40.4-25.4,92.8-40.1,159.2-27.9
	c142.8,25.4,171.1,161.3,165.6,218c-5.5,56.7-35.3,88-45.3,97.7c-9.9,9.3-13.2,12.7-12.2,19.5c1.3,10.3,5.8,9.8,14.4,7.8
	c11.9-2.9,75.1-46.4,77.7-151C1916.8,1590.3,1833,1443.7,1684.4,1445.1L1684.4,1445.1z M582.9,2010.6
	c-47.2,78.7-113.6,108.5-141.9,83.1c-30.5-26.9-18.6-142.7,39.5-226.3c35.3-50.8,81.2-97.7,111.4-126.6c6.7-6.4,17-15.6,29.2-26.9
	c1.9-1.9,3.2-2.9,3.2-2.9c2.2-2,4.8-4.4,7.4-6.8C653.2,1823.4,632.7,1928,582.9,2010.6L582.9,2010.6z M927.9,1653.3
	c-16.4,61.1-51,218-71.9,209.2c-18-7.3-28.9-126.1-3.5-243.4c12.8-59.1,40.1-129.5,56.2-156.9c26-44,54.2-58.6,61.3-40.6
	C978.3,1445.1,938.2,1615.2,927.9,1653.3z M1212.6,1860.5c-7.1,5.4-13.5,9.3-16.4,6.4c-2.2-2,2.9-9.3,2.9-9.3s35.6-58.2,49.7-85
	c8-15.6,17.7-33.7,27.9-54.2v5.9C1276.8,1794.6,1232.5,1841.5,1212.6,1860.5L1212.6,1860.5z M1432.1,1784.3
	c-5.1-5.9-4.5-23.9,12.8-80.6c6.7-22.5,22.1-60.1,48.8-95.8c3.2,14.7,5.1,28.8,4.8,42C1498.3,1737.9,1457.2,1770.6,1432.1,1784.3z"
	/>
</svg>
