<?xml version="1.0" encoding="utf-8"?>
<!-- Generator: Adobe Illustrator 27.9.1, SVG Export Plug-In . SVG Version: 6.00 Build 0)  -->
<svg version="1.1" id="Layer_1" xmlns="http://www.w3.org/2000/svg" xmlns:xlink="http://www.w3.org/1999/xlink" x="0px" y="0px"
	 viewBox="0 0 2183 2500" style="enable-background:new 0 0 2183 2500;" xml:space="preserve">
<style type="text/css">
	.st0{fill:#06B6D4;}
</style>
<path class="st0" d="M1091.5,660.8c-219.1,0-356,124.9-410.8,374.7c82.2-124.9,178-171.7,287.5-140.5
	c62.5,17.8,107.2,69.5,156.6,126.8c80.5,93.2,173.8,201.1,377.4,201.1c219.1,0,356-124.9,410.8-374.8
	c-82.1,124.9-178,171.8-287.5,140.6c-62.5-17.8-107.2-69.5-156.6-126.8C1388.4,768.7,1295.1,660.8,1091.5,660.8L1091.5,660.8z
	 M680.7,1222.9c-219.1,0-356,124.9-410.8,374.8c82.1-124.9,178-171.8,287.5-140.5c62.5,17.8,107.2,69.5,156.6,126.7
	c80.5,93.2,173.8,201.2,377.4,201.2c219.1,0,356-124.9,410.8-374.8c-82.2,124.9-178,171.8-287.5,140.5
	c-62.5-17.8-107.2-69.5-156.6-126.7C977.6,1330.8,884.3,1222.9,680.7,1222.9L680.7,1222.9z"/>
</svg>
