<?xml version="1.0" encoding="utf-8"?>
<!-- Generator: Adobe Illustrator 27.9.1, SVG Export Plug-In . SVG Version: 6.00 Build 0)  -->
<svg version="1.1" id="Layer_1" xmlns="http://www.w3.org/2000/svg" xmlns:xlink="http://www.w3.org/1999/xlink" x="0px" y="0px"
	 viewBox="0 0 2183 2500" style="enable-background:new 0 0 2183 2500;" xml:space="preserve">
<style type="text/css">
	.st0{fill:#FFFFFF;stroke:#231F20;stroke-miterlimit:10;}
</style>
<path class="st0" d="M1208.8,656.7v288.5l469.5,288.5V945.2L1208.8,656.7z M269.9,945.2v288.5L504.7,1378v-288.5L269.9,945.2z
	 M974.1,1089.5l-234.7,144.3v865.5l234.7,144.3v-577l234.7,144.3v-288.5l-234.7-144.3L974.1,1089.5z"/>
<path class="st0" d="M1208.8,656.7l-704.1,432.8V1378l469.5-288.5V1378l234.7-144.3L1208.8,656.7L1208.8,656.7z M1913,801
	l-234.7,144.3v288.5l234.7-144.3V801z M1443.6,1378.1l-234.7,144.3v288.5l234.7-144.3V1378.1z M1208.8,1810.9l-234.7-144.3v577
	l234.7-144.3V1810.9z"/>
<path class="st0" d="M1208.8,368.2l-938.9,577l234.7,144.3l704.1-432.8l469.5,288.5L1913.1,801L1208.8,368.2z M1208.8,1233.8
	L974.1,1378l234.7,144.3l234.7-144.3L1208.8,1233.8z"/>
</svg>
